# xmcd
#
# Track frame offsets:
#	150
#	15388
#	34031
#	50286
#	63693
#	81326
#	97746
#	112619
#	124348
#	142087
#	161949
#	176460
#	192247
#
# Disc length: 2800 seconds
#
# Revision: 1
# Processed by: cddbd v1.5.1PL0 Copyright (c) Steve Scherf et al.
# Submitted via: audiograbber 1.81.02
#
DISCID=a80aee0d
DTITLE=Mary McKee and The Genesis - simply... Mary McKee and The Genesis - By The R
DTITLE=ivers Of Babylon - CD2 (www.gerth.de)
DYEAR=2005
DGENRE=Gospel
TTITLE0=Try A Little Kindness
TTITLE1=Say I Do
TTITLE2=Love Lifted Me
TTITLE3=The Lord Is My Shepherd
TTITLE4=Cast Down Your Cares
TTITLE5=Shattered Dreams
TTITLE6=My Songbird
TTITLE7=We Need A Whole Lot More Of Jesus
TTITLE8=Lord How Did It Feel
TTITLE9=Before He Calls Again
TTITLE10=Boundless Love
TTITLE11=Jesus Is Lord Of The Way I Feel
TTITLE12=I May Fly Away Tonight
EXTD=
EXTT0=
EXTT1=
EXTT2=
EXTT3=
EXTT4=
EXTT5=
EXTT6=
EXTT7=
EXTT8=
EXTT9=
EXTT10=
EXTT11=
EXTT12=
PLAYORDER=
